<svg xmlns="http://www.w3.org/2000/svg" viewBox="0 0 512 512" width="512" height="512" role="img" aria-label="Medical Chat"><title>Medical Chat</title><rect width="512" height="512" rx="94.7" ry="94.7" fill="#ED1B24"/><g fill="#FFFFFF" transform="translate(87.04,247.98) scale(0.075818,-0.075818)"><path d="M857 702V0H686V421L529 0H391L233 422V0H62V702H264L461 216L656 702Z" transform="translate(0.0,0)"/><path d="M233 565V423H462V291H233V137H492V0H62V702H492V565Z" transform="translate(918.0,0)"/><path d="M693 351Q693 248 647.5 168.0Q602 88 518.5 44.0Q435 0 325 0H62V702H325Q436 702 519.0 658.0Q602 614 647.5 534.5Q693 455 693 351ZM519 351Q519 448 465.0 502.0Q411 556 314 556H233V148H314Q411 148 465.0 201.0Q519 254 519 351Z" transform="translate(1459.0,0)"/><path d="M233 702V0H62V702Z" transform="translate(2186.0,0)"/><path d="M386 710Q511 710 600.0 644.0Q689 578 719 464H531Q510 508 471.5 531.0Q433 554 384 554Q305 554 256.0 499.0Q207 444 207 352Q207 260 256.0 205.0Q305 150 384 150Q433 150 471.5 173.0Q510 196 531 240H719Q689 126 600.0 60.5Q511 -5 386 -5Q284 -5 203.5 40.5Q123 86 78.0 167.0Q33 248 33 352Q33 456 78.0 537.5Q123 619 203.5 664.5Q284 710 386 710Z" transform="translate(2481.0,0)"/><path d="M499 124H237L195 0H16L270 702H468L722 0H541ZM455 256 368 513 282 256Z" transform="translate(3243.0,0)"/><path d="M233 132H457V0H62V702H233Z" transform="translate(3980.0,0)"/></g><g fill="#FFFFFF" transform="translate(149.06,317.47) scale(0.075818,-0.075818)"><path d="M386 710Q511 710 600.0 644.0Q689 578 719 464H531Q510 508 471.5 531.0Q433 554 384 554Q305 554 256.0 499.0Q207 444 207 352Q207 260 256.0 205.0Q305 150 384 150Q433 150 471.5 173.0Q510 196 531 240H719Q689 126 600.0 60.5Q511 -5 386 -5Q284 -5 203.5 40.5Q123 86 78.0 167.0Q33 248 33 352Q33 456 78.0 537.5Q123 619 203.5 664.5Q284 710 386 710Z" transform="translate(0.0,0)"/><path d="M670 702V0H499V289H233V0H62V702H233V427H499V702Z" transform="translate(762.0,0)"/><path d="M499 124H237L195 0H16L270 702H468L722 0H541ZM455 256 368 513 282 256Z" transform="translate(1493.0,0)"/><path d="M567 702V565H381V0H210V565H24V702Z" transform="translate(2230.0,0)"/></g></svg>